<?xml version="1.0" encoding="UTF-8" standalone="no"?>
<svg
   xmlns:dc="http://purl.org/dc/elements/1.1/"
   xmlns:cc="http://creativecommons.org/ns#"
   xmlns:rdf="http://www.w3.org/1999/02/22-rdf-syntax-ns#"
   xmlns:svg="http://www.w3.org/2000/svg"
   xmlns="http://www.w3.org/2000/svg"
   id="svg8"
   version="1.1"
   viewBox="0 0 684.31866 137.96671"
   height="137.96671mm"
   width="684.31866mm">
  <defs
     id="defs2" />
  <metadata
     id="metadata5">
    <rdf:RDF>
      <cc:Work
         rdf:about="">
        <dc:format>image/svg+xml</dc:format>
        <dc:type
           rdf:resource="http://purl.org/dc/dcmitype/StillImage" />
        <dc:title></dc:title>
      </cc:Work>
    </rdf:RDF>
  </metadata>
  <g
     transform="translate(1060.8051,5.9952569)"
     id="layer1">
    <ellipse
       ry="68.624855"
       rx="68.487328"
       cy="62.988098"
       cx="-991.95923"
       id="path5223"
       style="fill:none;fill-opacity:1;stroke:#ffffff;stroke-width:0.71700001;stroke-linecap:round;stroke-linejoin:round;stroke-miterlimit:4;stroke-dasharray:none;stroke-opacity:1;paint-order:stroke fill markers" />
    <path
       id="path4557"
       d="m -1012.2539,34.442368 c 1.9571,-1.000457 5.6657,-6.923475 8.5025,-6.897639 2.9061,0.02647 6.99749,-2.258244 10.00348,-1.041312"
       style="fill:none;fill-opacity:1;stroke:#ffffff;stroke-width:1.15699995;stroke-linecap:round;stroke-linejoin:round;stroke-miterlimit:4;stroke-dasharray:none;stroke-opacity:1" />
    <path
       id="path4555"
       d="m -1050.937,67.427946 c -21.6853,-11.685782 17.736,-28.607963 38.6831,-32.985578"
       style="fill:none;stroke:#ffffff;stroke-width:1.15699995;stroke-linecap:round;stroke-linejoin:miter;stroke-miterlimit:4;stroke-dasharray:none;stroke-opacity:1" />
    <path
       id="path4559-0"
       d="m -997.51975,30.867512 c 3.00235,-0.980886 5.44167,-2.276793 9.00641,-1.208857"
       style="fill:none;fill-opacity:1;stroke:#ffffff;stroke-width:1.15699995;stroke-linecap:round;stroke-linejoin:round;stroke-miterlimit:4;stroke-dasharray:none;stroke-opacity:1" />
    <path
       id="path4559"
       d="m -999.96104,29.204531 c 2.67561,-1.066416 4.94184,-2.407653 9.0063,-1.208859"
       style="fill:none;fill-opacity:1;stroke:#ffffff;stroke-width:1.15699995;stroke-linecap:round;stroke-linejoin:round;stroke-miterlimit:4;stroke-dasharray:none;stroke-opacity:1" />
    <path
       id="path4553"
       d="m -991.48917,31.267696 c -1.94221,-4.056034 -3.58013,0.662488 -3.72214,5.9578"
       style="fill:none;fill-opacity:1;stroke:#ffffff;stroke-width:1.15699995;stroke-linecap:round;stroke-linejoin:miter;stroke-miterlimit:4;stroke-dasharray:none;stroke-opacity:1" />
    <path
       id="path4549"
       d="m -962.55512,60.560213 c 4.79607,-5.824426 8.64069,-14.808123 11.377,-27.472076"
       style="fill:none;stroke:#ffffff;stroke-width:1.15699995;stroke-linecap:round;stroke-linejoin:miter;stroke-miterlimit:4;stroke-dasharray:none;stroke-opacity:1" />
    <path
       id="path4551"
       d="m -960.51851,51.78901 c 2.81772,-7.772834 5.89169,-17.491582 7.09307,-12.991319"
       style="fill:none;stroke:#ffffff;stroke-width:1.15699995;stroke-linecap:round;stroke-linejoin:miter;stroke-miterlimit:4;stroke-dasharray:none;stroke-opacity:1" />
    <path
       id="path4571"
       d="m -927.23025,66.187013 c 0,0 0.9761,-1.793387 0.30704,-3.928468 -1.14893,-3.666325 -7.93219,-10.640268 -28.6793,-14.275906"
       style="fill:none;stroke:#ffffff;stroke-width:1.15699995;stroke-linecap:round;stroke-linejoin:miter;stroke-miterlimit:4;stroke-dasharray:none;stroke-opacity:1" />
    <path
       id="path5108"
       d="m -1003.8763,41.409398 c -2.1615,-0.535521 -13.109,4.873581 -19.9989,7.611465"
       style="fill:none;stroke:#ffffff;stroke-width:1.15699995;stroke-linecap:round;stroke-linejoin:miter;stroke-miterlimit:4;stroke-dasharray:none;stroke-opacity:1" />
    <g
       transform="matrix(1.5954401,0,0,1.5954401,-1177.4476,-80.816549)"
       style="fill:none;stroke:#ffffff;stroke-width:1.00849915;stroke-miterlimit:4;stroke-dasharray:none;stroke-opacity:1"
       id="g5240">
      <path
         style="fill:none;fill-opacity:1;stroke:#ffffff;stroke-width:1.00849915;stroke-linecap:round;stroke-linejoin:round;stroke-miterlimit:4;stroke-dasharray:none;stroke-opacity:1"
         d="m 127.9339,79.921812 c -5.862,-0.660173 -13.25563,-6.181145 -17.55481,-4.478771 -3.01225,5.009391 -1.11124,4.36882 -6.30073,5.363316 -1.82778,0.259142 -4.437904,0.417465 -7.218263,0.549156 -3.694496,0.17499 -8.483325,0.633689 -11.342887,0.888703 -3.685985,0.328714 -8.128838,8.517532 -5.403151,16.233198 2.769503,0.588506 5.864046,3.247636 6.793563,4.044976 0.2029,0.17404 0.308579,0.28441 0.308579,0.28441 2.080717,2.30971 -1.534254,12.51765 -1.986562,13.78902"
         id="path3819" />
      <path
         style="fill:none;fill-opacity:1;fill-rule:evenodd;stroke:#ffffff;stroke-width:1.00849915;stroke-linecap:round;stroke-linejoin:miter;stroke-miterlimit:4;stroke-dasharray:none;stroke-opacity:1"
         d="m 127.9339,79.921812 c 4.22487,8.264236 6.51006,9.826518 8.09264,8.361662 1.46751,-1.197587 3.54244,-1.001099 4.59913,-1.166603 2.30711,-0.361354 3.12752,0.128672 7.22859,-1.033834"
         id="path4638" />
      <path
         style="fill:none;stroke:#ffffff;stroke-width:1.00849915;stroke-linecap:round;stroke-linejoin:round;stroke-miterlimit:4;stroke-dasharray:none;stroke-opacity:1"
         d="m 147.85426,86.083034 c 7.17375,3.037101 13.06823,2.959433 5.66251,19.357516 -7.75297,-0.29997 -9.98567,5.58779 -9.77108,11.15522"
         id="path4640" />
      <path
         style="fill:none;stroke:#ffffff;stroke-width:1.00849915;stroke-linecap:round;stroke-linejoin:round;stroke-miterlimit:4;stroke-dasharray:none;stroke-opacity:1"
         d="m 85.229638,116.59582 c 0.232739,0.14306 40.853592,1.39084 58.516052,-5e-5"
         id="path5217" />
    </g>
    <path
       id="path4547"
       d="m -993.62234,37.536928 c 3.71766,-7.732156 4.70098,-15.53674 5.78534,-25.130523 20.53992,-15.084617 42.00594,-3.0116262 38.63461,20.010803 -10.03974,2.409885 -13.66668,8.011347 -18.17516,11.936268 -4.45492,-10.492141 -12.26574,-14.404082 -26.24479,-6.816548 z"
       style="fill:#222222;fill-opacity:0.99561405;stroke:#ffffff;stroke-width:1.15699995;stroke-linecap:butt;stroke-linejoin:miter;stroke-miterlimit:4;stroke-dasharray:none;stroke-opacity:1" />
    <text
       id="text4574"
       y="103.8443"
       x="-914.04968"
       style="font-style:normal;font-variant:normal;font-weight:normal;font-stretch:normal;font-size:106.79719543px;line-height:1.25;font-family:'Noto Serif';-inkscape-font-specification:'Noto Serif, Normal';font-variant-ligatures:normal;font-variant-caps:normal;font-variant-numeric:normal;font-feature-settings:normal;text-align:start;letter-spacing:0px;word-spacing:0px;writing-mode:lr-tb;text-anchor:start;fill:#ffffff;fill-opacity:1;stroke:#222222;stroke-width:2.66992974;stroke-opacity:0.96172249;"
       xml:space="preserve"><tspan
         style="font-style:normal;font-variant:normal;font-weight:normal;font-stretch:normal;font-size:106.79719543px;font-family:'Noto Serif';-inkscape-font-specification:'Noto Serif, Normal';font-variant-ligatures:normal;font-variant-caps:normal;font-variant-numeric:normal;font-feature-settings:normal;text-align:start;writing-mode:lr-tb;text-anchor:start;fill:#ffffff;fill-opacity:1;stroke:#222222;stroke-width:2.66992974;stroke-opacity:0.96172249;"
         y="103.8443"
         x="-914.04968"
         id="tspan4572">LAOSDIRG</tspan></text>
  </g>
</svg>
