<?xml version="1.0" encoding="UTF-8" standalone="no"?>
<svg
   xmlns:dc="http://purl.org/dc/elements/1.1/"
   xmlns:cc="http://creativecommons.org/ns#"
   xmlns:rdf="http://www.w3.org/1999/02/22-rdf-syntax-ns#"
   xmlns:svg="http://www.w3.org/2000/svg"
   xmlns="http://www.w3.org/2000/svg"
   id="svg8"
   version="1.1"
   viewBox="0 0 132.06349 132.32808"
   height="132.32808mm"
   width="132.06349mm">
  <defs
     id="defs2" />
  <metadata
     id="metadata5">
    <rdf:RDF>
      <cc:Work
         rdf:about="">
        <dc:format>image/svg+xml</dc:format>
        <dc:type
           rdf:resource="http://purl.org/dc/dcmitype/StillImage" />
        <dc:title></dc:title>
      </cc:Work>
    </rdf:RDF>
  </metadata>
  <g
     transform="translate(-49.523031,-13.730802)"
     id="layer1">
    <ellipse
       ry="66.013542"
       rx="65.881248"
       cy="79.894844"
       cx="115.55478"
       id="path5223"
       style="fill:none;fill-opacity:1;stroke:#070707;stroke-width:0.301;stroke-linecap:round;stroke-linejoin:round;stroke-miterlimit:4;stroke-dasharray:none;stroke-opacity:1;paint-order:stroke fill markers" />
    <path
       id="path4557"
       d="m 95.840666,53.326611 c 1.908711,-0.9757 5.525394,-6.752157 8.292094,-6.726958 2.83417,0.02581 6.82427,-2.202365 9.75589,-1.015547"
       style="fill:none;fill-opacity:1;stroke:#070707;stroke-width:0.46834442;stroke-linecap:round;stroke-linejoin:round;stroke-miterlimit:4;stroke-dasharray:none;stroke-opacity:1" />
    <path
       id="path4555"
       d="M 58.114765,85.495974 C 36.96615,74.099353 75.411945,57.595903 95.840666,53.326611"
       style="fill:none;stroke:#070707;stroke-width:0.46834442;stroke-linecap:round;stroke-linejoin:miter;stroke-miterlimit:4;stroke-dasharray:none;stroke-opacity:1" />
    <path
       id="path4559-0"
       d="m 110.21019,49.840214 c 2.92799,-0.956615 5.307,-2.220455 8.78352,-1.178944"
       style="fill:none;fill-opacity:1;stroke:#070707;stroke-width:0.46834442;stroke-linecap:round;stroke-linejoin:round;stroke-miterlimit:4;stroke-dasharray:none;stroke-opacity:1" />
    <path
       id="path4559"
       d="m 107.82925,48.218383 c 2.60945,-1.040028 4.81961,-2.348076 8.78352,-1.178946"
       style="fill:none;fill-opacity:1;stroke:#070707;stroke-width:0.46834442;stroke-linecap:round;stroke-linejoin:round;stroke-miterlimit:4;stroke-dasharray:none;stroke-opacity:1" />
    <path
       id="path4553"
       d="m 116.09148,50.230496 c -1.89408,-3.95567 -3.49154,0.646094 -3.63,5.810377"
       style="fill:none;fill-opacity:1;stroke:#070707;stroke-width:0.46834442;stroke-linecap:round;stroke-linejoin:miter;stroke-miterlimit:4;stroke-dasharray:none;stroke-opacity:1" />
    <path
       id="path4549"
       d="m 144.3096,78.798179 c 4.6774,-5.680301 8.42689,-14.441699 11.09549,-26.792288"
       style="fill:none;stroke:#070707;stroke-width:0.46834442;stroke-linecap:round;stroke-linejoin:miter;stroke-miterlimit:4;stroke-dasharray:none;stroke-opacity:1" />
    <path
       id="path4551"
       d="m 146.29582,70.244019 c 2.748,-7.580499 5.7459,-17.058761 6.91756,-12.669855"
       style="fill:none;stroke:#070707;stroke-width:0.46834442;stroke-linecap:round;stroke-linejoin:miter;stroke-miterlimit:4;stroke-dasharray:none;stroke-opacity:1" />
    <path
       id="path4571"
       d="m 178.76038,84.285748 c 0,0 0.95194,-1.74901 0.29944,-3.83126 -1.1205,-3.575603 -7.7359,-10.376979 -27.96964,-13.922656"
       style="fill:none;stroke:#070707;stroke-width:0.46834442;stroke-linecap:round;stroke-linejoin:miter;stroke-miterlimit:4;stroke-dasharray:none;stroke-opacity:1" />
    <path
       id="path5108"
       d="m 104.01089,60.121245 c -2.10812,-0.522269 -12.784493,4.752986 -19.503875,7.423123"
       style="fill:none;stroke:#070707;stroke-width:0.46834442;stroke-linecap:round;stroke-linejoin:miter;stroke-miterlimit:4;stroke-dasharray:none;stroke-opacity:1" />
    <g
       transform="matrix(1.5559616,0,0,1.5559616,-65.265369,-59.080271)"
       style="fill:none;stroke:#070707;stroke-width:0.5;stroke-miterlimit:4;stroke-dasharray:none;stroke-opacity:1"
       id="g5240">
      <path
         style="fill:none;fill-opacity:1;stroke:#070707;stroke-width:0.5;stroke-linecap:round;stroke-linejoin:round;stroke-miterlimit:4;stroke-dasharray:none;stroke-opacity:1"
         d="m 127.9339,79.921812 c -5.862,-0.660173 -13.25563,-6.181145 -17.55481,-4.478771 -3.01225,5.009391 -1.11124,4.36882 -6.30073,5.363316 -1.82778,0.259142 -4.437904,0.417465 -7.218263,0.549156 -3.694496,0.17499 -8.483325,0.633689 -11.342887,0.888703 -3.685985,0.328714 -8.128838,8.517532 -5.403151,16.233198 2.769503,0.588506 5.864046,3.247636 6.793563,4.044976 0.2029,0.17404 0.308579,0.28441 0.308579,0.28441 2.080717,2.30971 -1.534254,12.51765 -1.986562,13.78902"
         id="path3819" />
      <path
         style="fill:none;fill-opacity:1;fill-rule:evenodd;stroke:#070707;stroke-width:0.5;stroke-linecap:round;stroke-linejoin:miter;stroke-miterlimit:4;stroke-dasharray:none;stroke-opacity:1"
         d="m 127.9339,79.921812 c 4.22487,8.264236 6.51006,9.826518 8.09264,8.361662 1.46751,-1.197587 3.54244,-1.001099 4.59913,-1.166603 2.30711,-0.361354 3.12752,0.128672 7.22859,-1.033834"
         id="path4638" />
      <path
         style="fill:none;stroke:#070707;stroke-width:0.5;stroke-linecap:round;stroke-linejoin:round;stroke-miterlimit:4;stroke-dasharray:none;stroke-opacity:1"
         d="m 147.85426,86.083034 c 7.17375,3.037101 13.06823,2.959433 5.66251,19.357516 -7.75297,-0.29997 -9.98567,5.58779 -9.77108,11.15522"
         id="path4640" />
      <path
         style="fill:none;stroke:#070707;stroke-width:0.5;stroke-linecap:round;stroke-linejoin:round;stroke-miterlimit:4;stroke-dasharray:none;stroke-opacity:1"
         d="m 85.229638,116.59582 c 0.232739,0.14306 40.853592,1.39084 58.516052,-5e-5"
         id="path5217" />
    </g>
    <path
       id="path4547"
       d="m 114.01115,56.344598 c 3.62566,-7.540827 4.5846,-15.152289 5.64214,-24.508678 20.0317,-14.711355 40.96654,-2.937105 37.67864,19.515643 -9.7913,2.350253 -13.3285,7.81311 -17.72543,11.64091 -4.34466,-10.232517 -11.96222,-14.047659 -25.59535,-6.647875 z"
       style="fill:#000000;fill-opacity:1;stroke:#070707;stroke-width:0.46678847;stroke-linecap:butt;stroke-linejoin:miter;stroke-miterlimit:4;stroke-dasharray:none;stroke-opacity:1" />
  </g>
</svg>
